<svg width="512" height="512" viewBox="0 0 512 512" fill="none" xmlns="http://www.w3.org/2000/svg">
<path fill-rule="evenodd" clip-rule="evenodd" d="M512 256C512 397.385 397.385 512 256 512C114.615 512 0 397.385 0 256C0 114.615 114.615 0 256 0C397.385 0 512 114.615 512 256ZM382.653 163.907C396.16 162.229 409.354 158.61 421.827 153.162C412.792 166.885 401.332 178.848 388.008 188.463C388.244 191.36 388.244 194.257 388.244 197.255C388.244 287.091 319.832 390.737 194.695 390.737C157.668 390.885 121.394 380.283 90.2737 360.219C95.67 360.893 101.105 361.208 106.543 361.162C137.064 361.165 166.707 350.955 190.754 332.16C176.564 331.802 162.833 327.056 151.451 318.575C140.069 310.094 131.594 298.295 127.192 284.8C131.439 285.641 135.764 286.025 140.093 285.945C146.105 285.997 152.097 285.25 157.912 283.722C142.546 280.542 128.744 272.169 118.825 260.011C108.906 247.853 103.475 232.651 103.444 216.96V216.219C112.863 221.439 123.4 224.316 134.164 224.606C119.742 214.969 109.545 200.188 105.657 183.284C101.769 166.379 104.484 148.629 113.246 133.659C130.294 154.702 151.589 171.912 175.741 184.165C199.892 196.418 226.357 203.438 253.406 204.766C252.306 199.676 251.775 194.479 251.823 189.272C251.812 175.628 255.906 162.297 263.573 151.012C271.241 139.727 282.127 131.011 294.815 125.996C307.504 120.982 321.407 119.902 334.718 122.896C348.029 125.891 360.13 132.822 369.448 142.787C384.655 139.797 399.237 134.226 412.564 126.316C407.535 142.087 396.891 155.464 382.653 163.907Z" fill="white"/>
</svg>
